<mxfile host="app.diagrams.net" modified="2020-04-03T00:41:04.924Z" agent="5.0 (Macintosh; Intel Mac OS X 10_14_6) AppleWebKit/537.36 (KHTML, like Gecko) Chrome/80.0.3987.149 Safari/537.36" etag="rYo1ITpc8HEUPR3CyKa1" version="12.9.6" type="github">
  <diagram name="Page-1" id="e7e014a7-5840-1c2e-5031-d8a46d1fe8dd">
    <mxGraphModel dx="786" dy="681" grid="1" gridSize="10" guides="1" tooltips="1" connect="1" arrows="1" fold="1" page="1" pageScale="1" pageWidth="1169" pageHeight="826" background="#ffffff" math="0" shadow="0">
      <root>
        <mxCell id="0" />
        <mxCell id="1" parent="0" />
        <mxCell id="xgApULDK-RuyHCCMeM6z-41" value="Interface Make List&amp;nbsp;" style="text;html=1;strokeColor=none;fillColor=none;align=center;verticalAlign=middle;whiteSpace=wrap;rounded=0;" parent="1" vertex="1">
          <mxGeometry x="50" y="150" width="110" height="20" as="geometry" />
        </mxCell>
        <mxCell id="xgApULDK-RuyHCCMeM6z-42" value="DB" style="shape=cylinder;whiteSpace=wrap;html=1;boundedLbl=1;backgroundOutline=1;" parent="1" vertex="1">
          <mxGeometry x="200" y="170" width="90" height="70" as="geometry" />
        </mxCell>
        <mxCell id="xgApULDK-RuyHCCMeM6z-46" style="edgeStyle=orthogonalEdgeStyle;rounded=0;orthogonalLoop=1;jettySize=auto;html=1;exitX=0.5;exitY=1;exitDx=0;exitDy=0;" parent="1" source="xgApULDK-RuyHCCMeM6z-43" target="xgApULDK-RuyHCCMeM6z-42" edge="1">
          <mxGeometry relative="1" as="geometry" />
        </mxCell>
        <mxCell id="xgApULDK-RuyHCCMeM6z-43" value="Voting page" style="text;html=1;strokeColor=none;fillColor=none;align=center;verticalAlign=middle;whiteSpace=wrap;rounded=0;" parent="1" vertex="1">
          <mxGeometry x="320" y="160" width="110" height="20" as="geometry" />
        </mxCell>
        <mxCell id="xgApULDK-RuyHCCMeM6z-47" style="edgeStyle=orthogonalEdgeStyle;rounded=0;orthogonalLoop=1;jettySize=auto;html=1;exitX=1.011;exitY=0.614;exitDx=0;exitDy=0;entryX=0.5;entryY=0;entryDx=0;entryDy=0;exitPerimeter=0;" parent="1" source="xgApULDK-RuyHCCMeM6z-42" target="xgApULDK-RuyHCCMeM6z-44" edge="1">
          <mxGeometry relative="1" as="geometry">
            <Array as="points">
              <mxPoint x="375" y="213" />
            </Array>
          </mxGeometry>
        </mxCell>
        <mxCell id="xgApULDK-RuyHCCMeM6z-44" value="Results page" style="text;html=1;strokeColor=none;fillColor=none;align=center;verticalAlign=middle;whiteSpace=wrap;rounded=0;" parent="1" vertex="1">
          <mxGeometry x="320" y="250" width="110" height="20" as="geometry" />
        </mxCell>
        <mxCell id="xgApULDK-RuyHCCMeM6z-45" style="edgeStyle=orthogonalEdgeStyle;rounded=0;orthogonalLoop=1;jettySize=auto;html=1;exitX=0.75;exitY=1;exitDx=0;exitDy=0;" parent="1" source="xgApULDK-RuyHCCMeM6z-41" target="xgApULDK-RuyHCCMeM6z-42" edge="1">
          <mxGeometry relative="1" as="geometry" />
        </mxCell>
      </root>
    </mxGraphModel>
  </diagram>
</mxfile>
